PathFileType  4	(X/Y/Z) D:\Research_projects\MuscleProsody\BulkSports2Dtrack\RetrackedSports2D\p1_sample60_cam3\p1_sample60_cam3_Sports2D\pose-3d
DataRate	CameraRate	NumFrames	NumMarkers	Units	OrigDataRate	OrigDataStartFrame	OrigNumFrames
60.0	60.0	13	22	m	60.0	97	780
Frame#	Time	Hip			RHip			RKnee			RAnkle			RBigToe			RSmallToe			RHeel			LHip			LKnee			LAnkle			LBigToe			LSmallToe			LHeel			Neck			Head			Nose			RShoulder			RElbow			RWrist			LShoulder			LElbow			LWrist			
		X1	Y1	Z1	X2	Y2	Z2	X3	Y3	Z3	X4	Y4	Z4	X5	Y5	Z5	X6	Y6	Z6	X7	Y7	Z7	X8	Y8	Z8	X9	Y9	Z9	X10	Y10	Z10	X11	Y11	Z11	X12	Y12	Z12	X13	Y13	Z13	X14	Y14	Z14	X15	Y15	Z15	X16	Y16	Z16	X17	Y17	Z17	X18	Y18	Z18	X19	Y19	Z19	X20	Y20	Z20	X21	Y21	Z21	X22	Y22	Z22	

98	1.6166667	0.5039087	0.8148416	0.0301000	0.4245181	0.7841857	0.0301000	0.5796296	0.4488257	0.1290000	0.7612930	0.1615105	0.0230000	0.7185585	-0.0061468	0.2179000	0.6916263	0.0237115	0.1804000	0.8305603	0.1341669	-0.0119000	0.5869440	0.8346357	0.0301000	0.7362426	0.4883774	0.1290000	0.9166641	0.1707895	0.0230000	0.8470732	-0.0000364	0.2179000	0.9140981	0.0061661	0.1804000	0.9894045	0.1461168	-0.0119000	0.2775609	1.4120294	0.0008000	0.0865737	1.6498420	0.0655000	0.0915871	1.4627403	0.1076000	0.2023957	1.2550434	-0.0127500	0.1813674	1.0080521	0.0702000	0.0714050	0.9181903	0.1076000	0.4911836	1.3867244	-0.0127500	0.6711123	1.1320054	0.0702000	0.7135639	0.8390925	0.1076000
99	1.6333333	0.5042460	0.8149981	0.0301000	0.4244296	0.7848698	0.0301000	0.5799572	0.4486383	0.1290000	0.7610693	0.1613659	0.0230000	0.7183927	-0.0064557	0.2179000	0.6914585	0.0239314	0.1804000	0.8298000	0.1342676	-0.0119000	0.5865101	0.8354589	0.0301000	0.7370789	0.4881231	0.1290000	0.9164598	0.1705537	0.0230000	0.8472854	-0.0005728	0.2179000	0.9143647	0.0059442	0.1804000	0.9892158	0.1462124	-0.0119000	0.2774254	1.4121453	0.0008000	0.0858061	1.6495358	0.0655000	0.0916082	1.4623697	0.1076000	0.2025479	1.2558413	-0.0127500	0.1781757	1.0117753	0.0702000	0.0753420	0.9201753	0.1076000	0.4907931	1.3868718	-0.0127500	0.6740761	1.1347008	0.0702000	0.7029347	0.8463185	0.1076000
100	1.6500000	0.5046315	0.8153862	0.0301000	0.4243457	0.7857253	0.0301000	0.5801737	0.4486958	0.1290000	0.7609305	0.1612090	0.0230000	0.7182499	-0.0067678	0.2179000	0.6913562	0.0241450	0.1804000	0.8290532	0.1344289	-0.0119000	0.5862011	0.8365575	0.0301000	0.7377910	0.4882071	0.1290000	0.9163538	0.1702445	0.0230000	0.8476152	-0.0010943	0.2179000	0.9147196	0.0057844	0.1804000	0.9889386	0.1462779	-0.0119000	0.2772859	1.4121434	0.0008000	0.0850097	1.6492367	0.0655000	0.0916576	1.4619549	0.1076000	0.2025542	1.2566103	-0.0127500	0.1741447	1.0156262	0.0702000	0.0768241	0.9246161	0.1076000	0.4902801	1.3871795	-0.0127500	0.6773007	1.1381910	0.0702000	0.6916994	0.8568597	0.1076000
101	1.6666667	0.5050709	0.8160606	0.0301000	0.4242889	0.7867598	0.0301000	0.5802639	0.4490228	0.1290000	0.7609074	0.1610393	0.0230000	0.7181594	-0.0070872	0.2179000	0.6913264	0.0243250	0.1804000	0.8283612	0.1346472	-0.0119000	0.5860657	0.8379322	0.0301000	0.7383208	0.4886615	0.1290000	0.9163849	0.1698582	0.0230000	0.8480633	-0.0015745	0.2179000	0.9151642	0.0056922	0.1804000	0.9885729	0.1462772	-0.0119000	0.2771710	1.4120092	0.0008000	0.0842555	1.6489605	0.0655000	0.0917551	1.4614937	0.1076000	0.2024001	1.2572752	-0.0127500	0.1693135	1.0195648	0.0702000	0.0755266	0.9308718	0.1076000	0.4896600	1.3876786	-0.0127500	0.6807182	1.1425638	0.0702000	0.6804458	0.8712381	0.1076000
102	1.6833333	0.5055759	0.8170497	0.0301000	0.4242773	0.7879647	0.0301000	0.5802327	0.4496172	0.1290000	0.7610195	0.1608469	0.0230000	0.7181463	-0.0074150	0.2179000	0.6913589	0.0244594	0.1804000	0.8277799	0.1349092	-0.0119000	0.5861465	0.8395523	0.0301000	0.7386289	0.4894799	0.1290000	0.9165840	0.1693973	0.0230000	0.8486074	-0.0019932	0.2179000	0.9156647	0.0056626	0.1804000	0.9881213	0.1461874	-0.0119000	0.2770900	1.4117329	0.0008000	0.0836130	1.6487251	0.0655000	0.0919115	1.4609946	0.1076000	0.2020677	1.2577489	-0.0127500	0.1637687	1.0235432	0.0702000	0.0712750	0.9382920	0.1076000	0.4889559	1.3883937	-0.0127500	0.6842767	1.1478945	0.0702000	0.6698736	0.8898664	0.1076000
103	1.7000000	0.5061489	0.8183461	0.0301000	0.4243158	0.7893070	0.0301000	0.5801092	0.4504399	0.1290000	0.7612711	0.1606133	0.0230000	0.7182328	-0.0077371	0.2179000	0.6914276	0.0245496	0.1804000	0.8273517	0.1351789	-0.0119000	0.5864570	0.8413496	0.0301000	0.7387096	0.4906060	0.1290000	0.9169686	0.1688622	0.0230000	0.8492131	-0.0023294	0.2179000	0.9161716	0.0056965	0.1804000	0.9875745	0.1459956	-0.0119000	0.2770290	1.4113125	0.0008000	0.0831281	1.6485446	0.0655000	0.0921221	1.4604767	0.1076000	0.2015450	1.2579559	-0.0127500	0.1576572	1.0274908	0.0702000	0.0640429	0.9462527	0.1076000	0.4881999	1.3893378	-0.0127500	0.6879521	1.1542699	0.0702000	0.6606967	0.9130140	0.1076000
104	1.7166667	0.5067737	0.8199007	0.0301000	0.4243975	0.7907323	0.0301000	0.5799415	0.4514147	0.1290000	0.7616545	0.1603106	0.0230000	0.7184315	-0.0080231	0.2179000	0.6915023	0.0246025	0.1804000	0.8270929	0.1353989	-0.0119000	0.5869648	0.8432272	0.0301000	0.7385960	0.4919332	0.1290000	0.9175389	0.1682416	0.0230000	0.8498450	-0.0025702	0.2179000	0.9166347	0.0058017	0.1804000	0.9869197	0.1456936	-0.0119000	0.2769595	1.4107453	0.0008000	0.0828134	1.6484227	0.0655000	0.0923680	1.4599568	0.1076000	0.2008404	1.2578484	-0.0127500	0.1511891	1.0312874	0.0702000	0.0539511	0.9541738	0.1076000	0.4874129	1.3905100	-0.0127500	0.6917466	1.1618054	0.0702000	0.6535465	0.9407631	0.1076000
105	1.7333333	0.5074131	0.8216300	0.0301000	0.4245060	0.7921772	0.0301000	0.5797836	0.4524413	0.1290000	0.7621567	0.1599059	0.0230000	0.7187403	-0.0082377	0.2179000	0.6915611	0.0246274	0.1804000	0.8270018	0.1355021	-0.0119000	0.5875911	0.8450884	0.0301000	0.7383502	0.4933295	0.1290000	0.9182777	0.1675127	0.0230000	0.8504706	-0.0027172	0.2179000	0.9170079	0.0059848	0.1804000	0.9861564	0.1452749	-0.0119000	0.2768523	1.4100225	0.0008000	0.0826456	1.6483458	0.0655000	0.0926182	1.4594386	0.1076000	0.1999923	1.2574077	-0.0127500	0.1446372	1.0347502	0.0702000	0.0412766	0.9615261	0.1076000	0.4865877	1.3918975	-0.0127500	0.6956759	1.1706369	0.0702000	0.6488958	0.9729589	0.1076000
106	1.7500000	0.5080131	0.8234338	0.0301000	0.4246174	0.7935795	0.0301000	0.5796783	0.4534180	0.1290000	0.7627583	0.1593722	0.0230000	0.7191460	-0.0083501	0.2179000	0.6915925	0.0246373	0.1804000	0.8270726	0.1354235	-0.0119000	0.5882334	0.8468670	0.0301000	0.7380410	0.4946778	0.1290000	0.9191535	0.1666596	0.0230000	0.8510629	-0.0027748	0.2179000	0.9172546	0.0062530	0.1804000	0.9852939	0.1447312	-0.0119000	0.2766835	1.4091393	0.0008000	0.0825635	1.6482789	0.0655000	0.0928233	1.4589110	0.1076000	0.1990627	1.2566390	-0.0127500	0.1383292	1.0376593	0.0702000	0.0264598	0.9678435	0.1076000	0.4856899	1.3934840	-0.0127500	0.6997482	1.1808899	0.0702000	0.6469927	1.0092015	0.1076000
107	1.7666667	0.5085179	0.8252109	0.0301000	0.4247077	0.7948824	0.0301000	0.5796443	0.4542653	0.1290000	0.7634290	0.1587005	0.0230000	0.7196296	-0.0083387	0.2179000	0.6915922	0.0246515	0.1804000	0.8272978	0.1351115	-0.0119000	0.5888002	0.8485308	0.0301000	0.7377210	0.4959029	0.1290000	0.9201242	0.1656926	0.0230000	0.8515986	-0.0027407	0.2179000	0.9173554	0.0066207	0.1804000	0.9843433	0.1440565	-0.0119000	0.2764351	1.4081070	0.0008000	0.0824733	1.6481691	0.0655000	0.0929139	1.4583507	0.1076000	0.1981239	1.2555693	-0.0127500	0.1326253	1.0398041	0.0702000	0.0100932	0.9727373	0.1076000	0.4846722	1.3952527	-0.0127500	0.7039464	1.1926346	0.0702000	0.6478120	1.0488797	0.1076000
108	1.7833333	0.5088908	0.8268713	0.0301000	0.4247635	0.7960413	0.0301000	0.5796733	0.4549408	0.1290000	0.7641247	0.1579037	0.0230000	0.7201635	-0.0081892	0.2179000	0.6915609	0.0246942	0.1804000	0.8276621	0.1345461	-0.0119000	0.5892319	0.8500645	0.0301000	0.7374128	0.4969710	0.1290000	0.9211367	0.1646527	0.0230000	0.8520509	-0.0026068	0.2179000	0.9173074	0.0071069	0.1804000	0.9833279	0.1432653	-0.0119000	0.2760973	1.4069456	0.0008000	0.0822633	1.6479518	0.0655000	0.0928093	1.4577208	0.1076000	0.1972484	1.2542448	-0.0127500	0.1278943	1.0410160	0.0702000	-0.0070992	0.9758936	0.1076000	0.4834884	1.3971743	-0.0127500	0.7082173	1.2058417	0.0702000	0.6510567	1.0911903	0.1076000
109	1.8000000	0.5091247	0.8283471	0.0301000	0.4247901	0.7970291	0.0301000	0.5797401	0.4554383	0.1290000	0.7647903	0.1570144	0.0230000	0.7207113	-0.0078924	0.2179000	0.6915022	0.0247902	0.1804000	0.8281321	0.1337525	-0.0119000	0.5895061	0.8514574	0.0301000	0.7371159	0.4978795	0.1290000	0.9221269	0.1636063	0.0230000	0.8523880	-0.0023588	0.2179000	0.9171160	0.0077297	0.1804000	0.9822913	0.1424057	-0.0119000	0.2756694	1.4056752	0.0008000	0.0818170	1.6475577	0.0655000	0.0924317	1.4569768	0.1076000	0.1964997	1.2527233	-0.0127500	0.1244872	1.0411787	0.0702000	-0.0242898	0.9770621	0.1076000	0.4821009	1.3991970	-0.0127500	0.7124674	1.2203551	0.0702000	0.6562009	1.1351514	0.1076000
110	1.8166667	0.5092367	0.8295958	0.0301000	0.4248092	0.7978366	0.0301000	0.5798220	0.4557727	0.1290000	0.7653669	0.1560832	0.0230000	0.7212358	-0.0074427	0.2179000	0.6914218	0.0249575	0.1804000	0.8286502	0.1327933	-0.0119000	0.5896291	0.8527003	0.0301000	0.7368220	0.4986473	0.1290000	0.9230307	0.1626351	0.0230000	0.8525928	-0.0019716	0.2179000	0.9167994	0.0085087	0.1804000	0.9812860	0.1415501	-0.0119000	0.2751495	1.4043221	0.0008000	0.0810224	1.6469240	0.0655000	0.0917193	1.4560802	0.1076000	0.1959226	1.2510645	-0.0127500	0.1227029	1.0402291	0.0702000	-0.0405916	0.9760613	0.1076000	0.4804862	1.4012557	-0.0127500	0.7165619	1.2359104	0.0702000	0.6625663	1.1796865	0.1076000
